<svg xmlns="http://www.w3.org/2000/svg" width="29.224" height="22.962" viewBox="0 0 29.224 22.962"><defs><style>.a{fill:#fff;}</style></defs><g transform="translate(-5.839 -1.571)"><path class="a" d="M28.918,58.81,21.612,51.5a1.044,1.044,0,0,0-1.782.738v3.131H12.524a1.044,1.044,0,1,0,0,2.087h8.35a1.044,1.044,0,0,0,1.044-1.044V54.761L26.7,59.548l-4.787,4.787V62.679a1.044,1.044,0,0,0-1.044-1.044H9.393V58.5a1.044,1.044,0,0,0-1.782-.738L.305,65.072a1.044,1.044,0,0,0,0,1.476l7.306,7.306a1.044,1.044,0,0,0,.738.306,1.031,1.031,0,0,0,.4-.079,1.044,1.044,0,0,0,.644-.964V69.985H16.7a1.044,1.044,0,1,0,0-2.087H8.349a1.044,1.044,0,0,0-1.044,1.044V70.6L2.519,65.81l4.787-4.787v1.655a1.044,1.044,0,0,0,1.044,1.044H19.83v3.131a1.044,1.044,0,0,0,1.782.738l7.306-7.306A1.044,1.044,0,0,0,28.918,58.81Z" transform="translate(5.839 -49.627)"/></g></svg>