<svg xmlns="http://www.w3.org/2000/svg" width="138.254" height="182.497" viewBox="0 0 138.254 182.497"><defs><style>.a{fill:#00a62c;}.b{fill:#00c140;}.c{fill:#73da8c;}.d{fill:#b9ecc2;}.e{fill:#525aee;}.f{fill:#2f38e3;}.g{fill:#454545;}</style></defs><g transform="translate(-242 -64.375)"><g transform="translate(242 64.375)"><path class="a" d="M114.988,267.193a12.289,12.289,0,0,0,8.6-23.025c-6.359-2.375-19.856-1.543-22.23,4.816s7.271,15.835,13.63,18.209Zm0,0" transform="translate(-64.993 -156.352)"/><path class="b" d="M170.125,194.453H187.1v66.6H170.125Zm0,0" transform="translate(-109.486 -125.142)"/><path class="c" d="M122.584,77.223H15.669A15.669,15.669,0,0,1,0,61.554V15.67A15.668,15.668,0,0,1,15.669,0H122.584A15.669,15.669,0,0,1,138.254,15.67V61.555a15.669,15.669,0,0,1-15.669,15.668Zm0,0" transform="translate(0 0)"/><g transform="translate(0)"><path class="d" d="M25.154,0H15.669A15.668,15.668,0,0,0,0,15.669v9.483A25.154,25.154,0,0,0,25.154,0Zm0,0" transform="translate(0)"/><path class="d" d="M342.459,25.153V15.669A15.669,15.669,0,0,0,326.789,0H317.3A25.153,25.153,0,0,0,342.459,25.153Zm0,0" transform="translate(-204.205 0)"/><path class="d" d="M0,146.086v9.483a15.669,15.669,0,0,0,15.669,15.669h9.483A25.152,25.152,0,0,0,0,146.086Zm0,0" transform="translate(0 -94.015)"/><path class="d" d="M342.459,155.569v-9.483A25.153,25.153,0,0,0,317.3,171.238h9.485A15.669,15.669,0,0,0,342.459,155.569Zm0,0" transform="translate(-204.205 -94.015)"/><path class="d" d="M167.507,64.463c0-13.418-14.691-24.295-32.81-24.295s-32.811,10.877-32.811,24.295S116.576,88.758,134.7,88.758,167.507,77.879,167.507,64.463Zm0,0" transform="translate(-65.57 -25.85)"/></g><path class="e" d="M57.4,377.836l6.036,35.324a15.026,15.026,0,0,0,14.813,12.5h55.638a15.028,15.028,0,0,0,14.813-12.5l6.034-35.324Zm0,0" transform="translate(-36.939 -243.161)"/><path class="f" d="M134.284,377.836H57.4l6.036,35.324a15.026,15.026,0,0,0,14.813,12.5h21.978a59.73,59.73,0,0,1-2.633-8.031,17.171,17.171,0,0,1,12.18-20.722,122.341,122.341,0,0,0,24.512-9.894Zm0,0" transform="translate(-36.939 -243.161)"/><path class="e" d="M135.836,362.972H41.981s-11.243-5.035-11.243-11.245a11.243,11.243,0,0,1,11.243-11.243h93.855a11.244,11.244,0,0,1,0,22.488Zm0,0" transform="translate(-19.782 -219.122)"/><path class="f" d="M59.041,351.727a11.245,11.245,0,0,1,11.245-11.243h-28.3a11.244,11.244,0,0,0,0,22.488h28.3A11.245,11.245,0,0,1,59.041,351.727Zm0,0" transform="translate(-19.782 -219.122)"/><path class="c" d="M217.653,267.193a12.289,12.289,0,0,1-8.6-23.025c6.359-2.375,19.855-1.543,22.23,4.816s-7.272,15.835-13.63,18.209Zm0,0" transform="translate(-129.395 -156.352)"/><path class="g" d="M45.656,18.647A25.577,25.577,0,0,0,22.967,4.5,25.581,25.581,0,0,0,.278,18.648a2.58,2.58,0,0,0,0,2.328A25.577,25.577,0,0,0,22.967,35.122,25.581,25.581,0,0,0,45.656,20.975,2.58,2.58,0,0,0,45.656,18.647ZM22.967,31.294A11.483,11.483,0,1,1,34.45,19.811,11.483,11.483,0,0,1,22.967,31.294Zm0-19.139a7.6,7.6,0,0,0-2.018.3,3.816,3.816,0,0,1-5.335,5.335,7.638,7.638,0,1,0,7.353-5.637Z" transform="translate(45.486 18.001)"/></g></g></svg>